HIERARCHY
ROOT SpineBase
{
  OFFSET 0.000000 0.000000 0.000000
  CHANNELS 6 Xposition Yposition Zposition Zrotation Xrotation Yrotation
  JOINT SpineMid
  {
    OFFSET -0.000000 29.948452 0.000000
    CHANNELS 3 Zrotation Xrotation Yrotation
    JOINT SpineShoulder
    {
      OFFSET -0.167594 22.263357 -0.732011
      CHANNELS 3 Zrotation Xrotation Yrotation
      JOINT Neck
      {
        OFFSET -0.079009 7.366842 -0.560639
        CHANNELS 3 Zrotation Xrotation Yrotation
        JOINT Head
        {
          OFFSET 1.531666 14.043530 -3.115970
          CHANNELS 3 Zrotation Xrotation Yrotation
          End Site
          {
            OFFSET 0 0 0
          }
        }
      }
      JOINT ShoulderLeft
      {
        OFFSET -17.111416 -2.238088 -1.802953
        CHANNELS 3 Zrotation Xrotation Yrotation
        JOINT ElbowLeft
        {
          OFFSET -3.122835 -24.921456 -1.804389
          CHANNELS 3 Zrotation Xrotation Yrotation
          JOINT WristLeft
          {
            OFFSET 0.728670 -18.489646 -6.199574
            CHANNELS 3 Zrotation Xrotation Yrotation
            JOINT HandLeft
            {
              OFFSET 1.453856 -6.287998 -1.740047
              CHANNELS 3 Zrotation Xrotation Yrotation
              JOINT HandTipLeft
              {
                OFFSET 0.706029 -6.119449 -1.035493
                CHANNELS 3 Zrotation Xrotation Yrotation
                End Site
                {
                  OFFSET 0 0 0
                }
              }
              JOINT ThumbLeft
              {
                OFFSET -3.388876 -0.487315 -1.483667
                CHANNELS 3 Zrotation Xrotation Yrotation
                End Site
                {
                  OFFSET 0 0 0
                }
              }
            }
          }
        }
      }
      JOINT ShoulderRight
      {
        OFFSET 17.212540 -2.570498 1.290328
        CHANNELS 3 Zrotation Xrotation Yrotation
        JOINT ElbowRight
        {
          OFFSET 2.742115 -25.316288 0.001306
          CHANNELS 3 Zrotation Xrotation Yrotation
          JOINT WristRight
          {
            OFFSET 0.786499 -18.387677 -5.494081
            CHANNELS 3 Zrotation Xrotation Yrotation
            JOINT HandRight
            {
              OFFSET -0.308792 -6.205793 -2.088383
              CHANNELS 3 Zrotation Xrotation Yrotation
              JOINT HandTipRight
              {
                OFFSET 1.281134 -4.562727 -1.790316
                CHANNELS 3 Zrotation Xrotation Yrotation
                End Site
                {
                  OFFSET 0 0 0
                }
              }
              JOINT ThumbRight
              {
                OFFSET -3.041143 0.771054 0.136988
                CHANNELS 3 Zrotation Xrotation Yrotation
                End Site
                {
                  OFFSET 0 0 0
                }
              }
            }
          }
        }
      }
    }
  }
  JOINT HipLeft
  {
    OFFSET -6.375255 0.897665 -4.013907
    CHANNELS 3 Zrotation Xrotation Yrotation
    JOINT KneeLeft
    {
      OFFSET -6.954759 -24.895051 -0.266433
      CHANNELS 3 Zrotation Xrotation Yrotation
      JOINT AnkleLeft
      {
        OFFSET -3.013343 -31.833199 3.761689
        CHANNELS 3 Zrotation Xrotation Yrotation
        JOINT FootLeft
        {
          OFFSET -0.610624 -6.620535 -6.277497
          CHANNELS 3 Zrotation Xrotation Yrotation
          End Site
          {
            OFFSET 0 0 0
          }
        }
      }
    }
  }
  JOINT HipRight
  {
    OFFSET 6.266284 0.388082 -3.110955
    CHANNELS 3 Zrotation Xrotation Yrotation
    JOINT KneeRight
    {
      OFFSET 3.453451 -26.528858 3.984683
      CHANNELS 3 Zrotation Xrotation Yrotation
      JOINT AnkleRight
      {
        OFFSET 4.058828 -29.716276 10.272516
        CHANNELS 3 Zrotation Xrotation Yrotation
        JOINT FootRight
        {
          OFFSET 3.069519 -7.668464 -5.213084
          CHANNELS 3 Zrotation Xrotation Yrotation
          End Site
          {
            OFFSET 0 0 0
          }
        }
      }
    }
  }
}
MOTION
Frames: 13
Frame Time: 0.033333
5.089039 64.175485 392.060282 0.000000 0.000000 -4.085547 -0.000000 0.000000 4.085547 -0.000000 0.000000 0.000000 -0.000000 0.000000 0.000000 0.000000 0.000000 0.000000 -0.000000 0.000000 0.000000 -0.000000 0.000000 0.000000 -0.000000 0.000000 0.000000 -0.000000 0.000000 0.000000 0.000000 0.000000 0.000000 0.000000 0.000000 0.000000 -0.000000 0.000000 0.000000 -0.000000 0.000000 0.000000 -0.000000 0.000000 0.000000 -0.000000 0.000000 0.000000 0.000000 0.000000 0.000000 0.000000 0.000000 0.000000 -0.000000 0.000000 4.085547 -0.000000 0.000000 0.000000 -0.000000 0.000000 0.000000 0.000000 0.000000 0.000000 -0.000000 0.000000 4.085547 -0.000000 0.000000 0.000000 -0.000000 0.000000 0.000000 0.000000 0.000000 0.000000
5.059476 64.161247 392.116097 0.197497 -0.061148 -4.473928 -0.201665 0.045556 4.474113 -0.000000 0.000000 0.000000 -0.000000 0.000000 0.000000 0.000000 0.000000 0.000000 -0.000000 0.000000 0.000000 -0.000000 0.000000 0.000000 0.274152 -1.549118 -0.431728 -0.285920 1.546990 0.439295 0.000000 0.000000 0.000000 0.000000 0.000000 0.000000 -0.000000 0.000000 0.000000 -0.000000 0.000000 0.000000 -2.955179 -3.958025 1.100945 3.645339 -0.015008 -2.710787 0.000000 0.000000 0.000000 0.000000 0.000000 0.000000 -0.201665 0.045556 4.474113 -0.000000 0.000000 0.000000 -0.000000 0.000000 0.000000 0.000000 0.000000 0.000000 -0.201665 0.045556 4.474113 -0.000000 0.000000 0.000000 0.513687 0.894430 0.004773 0.000000 0.000000 0.000000
5.031876 64.149198 392.167350 0.371304 -0.124163 -4.845131 -0.380464 0.092356 4.845840 -0.000000 0.000000 0.000000 -0.105265 1.317281 -0.166230 0.000000 0.000000 0.000000 -0.000000 0.000000 0.000000 -0.000000 0.000000 0.000000 0.529703 -2.783806 -0.781896 -1.804327 3.025581 1.110406 0.000000 0.000000 0.000000 0.000000 0.000000 0.000000 0.845689 -1.089095 -0.109799 -0.511873 -0.256460 -0.034141 -6.079342 -5.953787 2.275797 6.647141 -0.011290 -5.134090 0.000000 0.000000 0.000000 0.000000 0.000000 0.000000 -0.380464 0.092356 4.845840 -0.000000 0.000000 0.000000 -0.000000 0.000000 0.000000 0.000000 0.000000 0.000000 -0.380464 0.092356 4.845840 -0.000000 0.000000 0.000000 0.996241 1.683300 -0.017828 0.000000 0.000000 0.000000
5.006238 64.139337 392.214038 0.521470 -0.189055 -5.199157 -0.536458 0.141015 5.200678 -0.000000 0.000000 0.000000 -0.121465 1.830581 -0.225453 0.000000 0.000000 0.000000 -0.000000 0.000000 0.000000 -0.000000 0.000000 0.000000 0.769655 -3.685666 -1.048361 -2.324306 3.842388 1.471145 0.000000 0.000000 0.000000 0.000000 0.000000 0.000000 1.093993 -1.494291 -0.147386 -0.721211 -0.304972 -0.016719 -8.686114 -7.967920 3.121418 8.993195 -0.278801 -7.144641 0.000000 0.000000 0.000000 0.000000 0.000000 0.000000 -0.536458 0.141015 5.200678 -0.000000 0.000000 0.000000 0.283266 -0.733011 -0.200430 0.000000 0.000000 0.000000 -0.536458 0.141015 5.200678 -0.088529 1.067828 0.116464 1.524575 1.268128 -0.154972 0.000000 0.000000 0.000000
4.982562 64.131665 392.256163 0.648038 -0.255835 -5.536024 -0.669699 0.192109 5.538594 -0.000000 0.000000 0.000000 -0.113448 2.243484 -0.268807 0.000000 0.000000 0.000000 -0.000000 0.000000 0.000000 -0.000000 0.000000 0.000000 0.996076 -4.243204 -1.230363 -2.566660 4.186941 1.665560 0.000000 0.000000 0.000000 0.000000 0.000000 0.000000 1.225746 -1.805843 -0.176028 -0.892738 -0.315693 0.019661 -10.916654 -9.074400 3.800988 10.652227 -1.018315 -8.634726 0.000000 0.000000 0.000000 0.000000 0.000000 0.000000 -0.669699 0.192109 5.538594 -0.000000 0.000000 0.000000 0.396530 -0.881640 -0.293855 0.000000 0.000000 0.000000 -0.669699 0.192109 5.538594 -0.093240 1.251181 0.140232 1.910599 1.580724 -0.238856 0.000000 0.000000 0.000000
4.960848 64.126181 392.293724 0.751040 -0.324516 -5.855768 -0.780237 0.246172 5.859571 -0.000000 0.000000 0.000000 -0.081333 2.554108 -0.296286 0.000000 0.000000 0.000000 -0.000000 0.000000 0.000000 0.621421 -0.715173 -0.233109 0.603125 -3.733702 -1.102241 -2.526290 4.060868 1.683760 0.000000 0.000000 0.000000 0.000000 0.000000 0.000000 1.240892 -2.023438 -0.196980 -1.023781 -0.296433 0.073161 -12.720371 -9.161712 4.351067 11.588373 -2.349549 -9.537250 0.000000 0.000000 0.000000 0.000000 0.000000 0.000000 -0.780237 0.246172 5.859571 -0.000000 0.000000 0.000000 0.518246 -0.978602 -0.400116 0.000000 0.000000 0.000000 -0.780237 0.246172 5.859571 -0.085868 1.353196 0.156823 2.215355 1.797405 -0.339501 0.000000 0.000000 0.000000
4.946688 64.119725 392.360255 0.800803 -0.429502 -6.267424 -0.072011 0.046337 6.291639 -0.734140 0.375853 -0.018904 0.155010 2.772127 -0.273267 0.000000 0.000000 0.000000 -0.000000 0.000000 0.000000 0.679993 -0.869267 -0.257699 0.513525 -4.213235 -1.213024 -2.037977 4.518035 1.700782 0.000000 0.000000 0.000000 0.000000 0.000000 0.000000 1.044183 -2.116880 -0.209761 -1.074090 -0.407046 0.150020 -13.693407 -8.513469 4.704086 9.942224 -4.467464 -9.365363 0.000000 0.000000 0.000000 0.000000 0.000000 0.000000 -0.842919 0.339471 6.272923 -0.000000 0.000000 0.000000 0.696745 -1.059582 -0.561715 0.000000 0.000000 0.000000 -0.842919 0.339471 6.272923 -0.066130 1.377877 0.166850 2.588933 2.121985 -0.479968 0.000000 0.000000 0.000000
4.927616 64.117739 392.400861 0.852369 -0.514297 -6.626869 -0.092436 0.051581 6.652454 -0.030551 -0.011855 0.029414 -0.495508 3.291873 -0.313095 0.000000 0.000000 0.000000 -0.735540 0.464915 -0.048025 0.771942 -1.123728 -0.296448 0.815651 -2.883786 -1.035739 -1.669309 3.972765 1.429807 0.000000 0.000000 0.000000 0.000000 0.000000 0.000000 0.039551 -1.693284 -0.273230 -1.116283 -0.376898 0.247191 -14.975653 -5.560196 5.276501 10.227722 -7.701859 -9.327094 0.000000 0.000000 0.000000 0.000000 0.000000 0.000000 -0.906048 0.412439 6.633956 -0.000000 0.000000 0.000000 0.808617 -1.019499 -0.671600 0.000000 0.000000 0.000000 -0.906048 0.412439 6.633956 -0.067916 1.298258 0.155244 2.974067 2.422540 -0.645934 0.000000 0.000000 0.000000
4.905844 64.120655 392.422858 0.894569 -0.586482 -6.853194 -0.116034 0.053884 6.879782 -0.038226 -0.006292 0.029525 -0.487078 3.402280 -0.314908 0.000000 0.000000 0.000000 -0.747095 0.526114 -0.047804 0.899561 -1.401063 -0.347162 0.731803 -2.063289 -0.877813 -1.164797 2.716036 1.107945 0.000000 0.000000 0.000000 0.000000 0.000000 0.000000 -0.284358 -1.593973 -0.272988 -1.062708 -0.373095 0.320594 -15.848507 -1.892935 5.824253 10.092790 -12.394673 -9.430431 0.000000 0.000000 0.000000 0.000000 0.000000 0.000000 -0.958192 0.475476 6.861749 -0.000000 0.000000 0.000000 0.920848 -0.991542 -0.780703 0.000000 0.000000 0.000000 -0.958192 0.475476 6.861749 -0.060076 1.044965 0.122908 2.858724 1.776699 -0.888152 0.000000 0.000000 0.000000
4.886137 64.126017 392.399602 0.957943 -0.606290 -6.953714 -0.127515 0.044575 6.982367 -0.048051 -0.001691 0.030966 -0.627645 3.278891 -0.319893 0.000000 0.000000 0.000000 -0.788186 0.549062 -0.050341 0.976611 -1.618270 -0.379119 0.825055 -0.702404 -0.644895 -0.132069 0.892374 0.576841 0.000000 0.000000 0.000000 0.000000 0.000000 0.000000 -0.652351 -1.402972 -0.260734 -1.132396 -0.020204 0.444901 -16.105921 0.636025 5.999523 9.121901 -14.540523 -8.642698 0.000000 0.000000 0.000000 0.000000 0.000000 0.000000 -1.024334 0.485770 6.963125 -0.000000 0.000000 0.000000 1.089682 -0.890414 -0.950473 0.000000 0.000000 0.000000 -1.024334 0.485770 6.963125 0.016418 0.877499 0.125737 2.445173 0.998856 -1.029845 0.000000 0.000000 0.000000
4.864010 64.132648 392.354706 1.014824 -0.594072 -7.086875 -0.145121 0.029849 7.117113 -0.062684 0.004848 0.031577 -0.847602 3.065106 -0.336073 0.000000 0.000000 0.000000 -0.811270 0.542521 -0.052104 1.027879 -1.731965 -0.399262 1.030743 0.117820 -0.547503 0.789538 -2.398041 0.050060 0.000000 0.000000 0.000000 0.000000 0.000000 0.000000 -1.009278 -1.106658 -0.231784 -1.332707 0.462451 0.611494 -15.949841 2.401809 5.926815 7.579741 -16.547783 -8.020240 0.000000 0.000000 0.000000 0.000000 0.000000 0.000000 -1.080398 0.464239 7.096513 -0.000000 0.000000 0.000000 0.907779 -4.515805 -0.424427 0.000000 0.000000 0.000000 -1.080398 0.464239 7.096513 -0.000000 0.000000 0.000000 1.791845 0.664291 -0.952951 0.000000 0.000000 0.000000
4.817647 64.139124 392.263245 1.045787 -0.518967 -7.058169 -0.152132 0.011113 7.089104 -0.065642 -0.001207 0.032433 -0.971601 2.830841 -0.338586 0.000000 0.000000 0.000000 -0.830028 0.491322 -0.054362 1.066896 -1.827601 -0.414818 1.037224 0.654793 -0.452072 0.033295 -3.574277 0.015809 0.000000 0.000000 0.000000 0.000000 0.000000 0.000000 -1.214476 -0.872237 -0.203453 -1.719460 1.350771 0.820310 -15.795512 2.184448 5.602192 6.678528 -16.188784 -7.312044 0.000000 0.000000 0.000000 0.000000 0.000000 0.000000 -1.101655 0.386448 7.066621 -0.000000 0.000000 0.000000 1.445212 -0.199457 -1.353235 0.000000 0.000000 0.000000 -1.101655 0.386448 7.066621 -0.000000 0.000000 0.000000 1.467945 0.366754 -0.849649 0.000000 0.000000 0.000000
4.734302 64.149741 392.132904 1.045497 -0.423864 -6.880087 -0.166829 -0.002928 6.910259 -0.065361 -0.003536 0.031944 -0.989758 2.516217 -0.320248 0.000000 0.000000 0.000000 -0.813740 0.411171 -0.054618 1.081633 -1.894411 -0.421642 0.906846 0.623667 -0.432459 1.128382 -4.254568 -0.213414 0.000000 0.000000 0.000000 0.000000 0.000000 0.000000 -1.219383 -0.792314 -0.186440 -2.193220 2.467367 1.035835 -16.336321 -0.093179 5.275940 8.037118 -14.439786 -7.388006 0.000000 0.000000 0.000000 0.000000 0.000000 0.000000 -1.088757 0.295504 6.886762 -0.000000 0.000000 0.000000 1.941331 2.721462 -2.093962 0.000000 0.000000 0.000000 -1.088757 0.295504 6.886762 -0.000000 0.000000 0.000000 1.322556 0.314244 -0.771949 0.000000 0.000000 0.000000
